<svg width="67" height="24" viewBox="0 0 67 24" fill="none" xmlns="http://www.w3.org/2000/svg">
<g filter="url(#filter0_i_265_1659)">
<path d="M21.6875 7.17188H20.4844C20.1615 6.22396 19.6406 5.20833 18.9219 4.125C18.2135 3.04167 17.5573 2.45833 16.9531 2.375C16.6198 2.33333 16.2083 2.29688 15.7188 2.26562C15.2292 2.23438 14.8073 2.21875 14.4531 2.21875H13.7188V19.6094C13.7188 19.9844 13.7865 20.3177 13.9219 20.6094C14.0573 20.8906 14.3229 21.1146 14.7188 21.2812C14.9583 21.375 15.3281 21.474 15.8281 21.5781C16.3385 21.6719 16.7708 21.7396 17.125 21.7812V23H4.76562V21.7812C5.06771 21.75 5.48958 21.7083 6.03125 21.6562C6.58333 21.5938 6.95833 21.5208 7.15625 21.4375C7.5625 21.2708 7.83333 21.0469 7.96875 20.7656C8.10417 20.4844 8.17188 20.151 8.17188 19.7656V2.21875H7.4375C7.08333 2.21875 6.66146 2.23438 6.17188 2.26562C5.68229 2.29688 5.27083 2.33333 4.9375 2.375C4.33333 2.45833 3.67188 3.04167 2.95312 4.125C2.24479 5.20833 1.72917 6.22396 1.40625 7.17188H0.203125V0.828125H21.6875V7.17188ZM43.7656 6.375C43.7656 7.625 43.5052 8.70312 42.9844 9.60938C42.474 10.5052 41.7656 11.2344 40.8594 11.7969C39.9219 12.3802 38.849 12.8021 37.6406 13.0625C36.4427 13.3229 35.0938 13.4531 33.5938 13.4531H31.7812V19.6875C31.7812 20.0625 31.849 20.3906 31.9844 20.6719C32.1302 20.9427 32.401 21.1615 32.7969 21.3281C33.0052 21.4115 33.3438 21.5 33.8125 21.5938C34.2812 21.6875 34.6771 21.75 35 21.7812V23H22.9844V21.7812C23.2865 21.75 23.6875 21.7083 24.1875 21.6562C24.6875 21.5938 25.0365 21.5208 25.2344 21.4375C25.6406 21.2708 25.9062 21.0677 26.0312 20.8281C26.1667 20.5885 26.2344 20.2552 26.2344 19.8281V4.1875C26.2344 3.82292 26.1719 3.51042 26.0469 3.25C25.9219 2.97917 25.651 2.75521 25.2344 2.57812C24.9427 2.45312 24.5521 2.34375 24.0625 2.25C23.5833 2.14583 23.224 2.07812 22.9844 2.04688V0.828125H35.2188C38.0833 0.828125 40.224 1.28646 41.6406 2.20312C43.0573 3.10938 43.7656 4.5 43.7656 6.375ZM37.6719 7.17188C37.6719 5.50521 37.3333 4.27083 36.6562 3.46875C35.9896 2.65625 34.7969 2.25 33.0781 2.25H31.7812V11.9844H32.4375C34.1458 11.9844 35.4427 11.5938 36.3281 10.8125C37.224 10.0208 37.6719 8.80729 37.6719 7.17188Z" fill="white"/>
<path d="M57.0469 23.5938C55.4219 23.5938 53.901 23.3333 52.4844 22.8125C51.0677 22.2812 49.8333 21.5156 48.7812 20.5156C47.75 19.5365 46.9375 18.3281 46.3438 16.8906C45.75 15.4427 45.4531 13.8542 45.4531 12.125C45.4531 10.4062 45.75 8.81771 46.3438 7.35938C46.9479 5.89062 47.7917 4.61979 48.875 3.54688C49.9375 2.49479 51.2135 1.68229 52.7031 1.10938C54.1927 0.526042 55.7865 0.234375 57.4844 0.234375C58.7135 0.234375 59.8333 0.385417 60.8438 0.6875C61.8542 0.979167 62.7083 1.3125 63.4062 1.6875L64.375 0.828125H65.7344L65.875 8.92188H64.5C63.7188 6.45312 62.7812 4.64062 61.6875 3.48438C60.5938 2.32812 59.2604 1.75 57.6875 1.75C55.7292 1.75 54.2396 2.61458 53.2188 4.34375C52.1979 6.0625 51.6875 8.47917 51.6875 11.5938C51.6875 13.3542 51.8594 14.8594 52.2031 16.1094C52.5573 17.349 53.0156 18.349 53.5781 19.1094C54.1823 19.901 54.8958 20.4844 55.7188 20.8594C56.5417 21.224 57.4531 21.4062 58.4531 21.4062C59.9115 21.4062 61.2083 21.0104 62.3438 20.2188C63.4896 19.4271 64.5312 18.2292 65.4688 16.625L66.8125 17.4375C66.3646 18.3542 65.8542 19.1771 65.2812 19.9062C64.7083 20.625 64.0469 21.2448 63.2969 21.7656C62.474 22.3385 61.5625 22.7865 60.5625 23.1094C59.5729 23.4323 58.401 23.5938 57.0469 23.5938Z" fill="#F6BD0C"/>
</g>
<defs>
<filter id="filter0_i_265_1659" x="0.203125" y="0.234375" width="66.6094" height="27.3594" filterUnits="userSpaceOnUse" color-interpolation-filters="sRGB">
<feFlood flood-opacity="0" result="BackgroundImageFix"/>
<feBlend mode="normal" in="SourceGraphic" in2="BackgroundImageFix" result="shape"/>
<feColorMatrix in="SourceAlpha" type="matrix" values="0 0 0 0 0 0 0 0 0 0 0 0 0 0 0 0 0 0 127 0" result="hardAlpha"/>
<feOffset dy="4"/>
<feGaussianBlur stdDeviation="2"/>
<feComposite in2="hardAlpha" operator="arithmetic" k2="-1" k3="1"/>
<feColorMatrix type="matrix" values="0 0 0 0 0 0 0 0 0 0 0 0 0 0 0 0 0 0 0.25 0"/>
<feBlend mode="normal" in2="shape" result="effect1_innerShadow_265_1659"/>
</filter>
</defs>
</svg>
