<svg width="195" height="30" viewBox="0 0 195 30" fill="none" xmlns="http://www.w3.org/2000/svg">
<path d="M14.1315 5.14531C17.1122 5.14531 18.9425 6.18939 20.1975 6.86805C20.8773 7.23348 21.348 7.4945 21.8186 7.4945C22.6553 7.4945 23.2828 6.92025 23.2828 6.13719C23.2828 4.36225 18.8902 2.01306 14.2361 2.01306C6.33987 2.01306 0.326172 7.96433 0.326172 15.795C0.326172 23.6256 6.28758 29.5246 14.2361 29.5246C18.8902 29.5246 23.2828 27.2277 23.2828 25.4005C23.2828 24.6175 22.6553 24.0432 21.8186 24.0432C21.348 24.0432 20.8773 24.3042 20.1975 24.6697C18.9425 25.3483 17.1122 26.3402 14.1315 26.3402C8.11783 26.3402 3.62063 21.7984 3.62063 15.7428C3.62063 9.68707 8.11783 5.14531 14.1315 5.14531Z" fill="white"/>
<path d="M34.3165 8.5387C32.4863 8.5387 30.9175 9.32176 29.767 10.6791V10.5225C29.767 9.63498 29.0872 8.95633 28.1459 8.95633C27.257 8.95633 26.5771 9.63498 26.5771 10.5225V27.541C26.5771 28.4285 27.257 29.1071 28.1459 29.1071C29.0872 29.1071 29.767 28.4285 29.767 27.541V16.9958C29.767 13.6547 31.2312 11.5665 33.6367 11.5665C34.3165 11.5665 34.7872 11.6709 35.2055 11.7754C35.5193 11.8276 35.7807 11.8798 36.0422 11.8798C36.9312 11.8798 37.5587 11.2533 37.5587 10.418C37.5064 9.11294 35.8853 8.5387 34.3165 8.5387Z" fill="white"/>
<path d="M56.0182 8.95629C55.0769 8.95629 54.3971 9.63494 54.3971 10.5224V11.8797C52.6714 9.68714 50.1614 8.48645 47.233 8.48645C41.6376 8.48645 37.4019 12.976 37.4019 18.9795C37.4019 24.8786 41.7422 29.5247 47.233 29.5247C50.0568 29.5247 52.6191 28.2718 54.3971 26.0792V27.541C54.3971 28.4284 55.0769 29.1071 56.0182 29.1071C56.9072 29.1071 57.587 28.4284 57.587 27.541V10.5224C57.587 9.58274 56.8549 8.95629 56.0182 8.95629ZM54.3971 18.9795C54.3971 23.2602 51.4164 26.5491 47.5467 26.5491C43.6247 26.5491 40.5917 23.208 40.5917 18.9795C40.5917 14.7509 43.5724 11.5665 47.4944 11.5665C51.3641 11.5665 54.3971 14.7509 54.3971 18.9795Z" fill="white"/>
<path d="M80.6486 0.499268C79.7073 0.499268 79.0275 1.17792 79.0275 2.06539V11.8798C77.3018 9.6872 74.7917 8.4865 71.8633 8.4865C66.268 8.4865 62.0322 12.9761 62.0322 18.9795C62.0322 24.8786 66.3726 29.5248 71.8633 29.5248C74.6871 29.5248 77.2495 28.2719 79.0275 26.0793V27.541C79.0275 28.4285 79.7596 29.1593 80.6486 29.1593C81.5375 29.1593 82.2173 28.4285 82.2173 27.541V2.06539C82.2173 1.17792 81.4852 0.499268 80.6486 0.499268ZM79.0275 18.9795C79.0275 23.2603 76.0468 26.5491 72.1771 26.5491C68.2551 26.5491 65.2221 23.2081 65.2221 18.9795C65.2221 14.751 68.2028 11.5665 72.1771 11.5665C76.0991 11.5665 79.0275 14.751 79.0275 18.9795Z" fill="white"/>
<path d="M89.7997 0.499268C88.9108 0.499268 88.231 1.17792 88.231 2.06539V27.541C88.231 28.4285 88.9108 29.1071 89.7997 29.1071C90.741 29.1071 91.4208 28.4285 91.4208 27.541V2.06539C91.3685 1.17792 90.6364 0.499268 89.7997 0.499268Z" fill="white"/>
<path d="M105.645 8.5387C100.049 8.5387 95.8135 13.0283 95.8135 19.0317C95.8135 25.0352 100.258 29.577 106.168 29.577C110.351 29.577 113.698 27.5932 113.698 25.9227C113.698 25.1918 113.175 24.6176 112.39 24.6176C111.972 24.6176 111.554 24.8786 111.083 25.1918C110.194 25.7661 108.782 26.6535 106.272 26.6535C102.507 26.6535 99.5786 23.9389 99.1079 20.128H113.332C114.534 20.128 115.319 19.3972 115.319 18.1443C115.214 13.3937 111.658 8.5387 105.645 8.5387ZM112.024 17.5178H99.0556C99.6309 13.9157 102.298 11.4099 105.592 11.4099C109.044 11.4099 111.501 13.8113 112.024 17.5178Z" fill="white"/>
<path d="M145.439 8.90417C144.603 8.90417 144.028 9.37401 143.871 10.2093L139.112 24.8264L134.196 10.6269C133.883 9.47842 133.203 8.95638 132.052 8.95638C130.954 8.95638 130.274 9.47842 129.961 10.5747L125.045 24.8786L120.286 10.3137C120.077 9.42622 119.502 8.90417 118.665 8.90417C118.142 8.90417 117.672 9.11299 117.358 9.53063C117.044 9.94826 116.992 10.5225 117.201 11.2012L122.797 27.6977C123.11 28.6895 123.842 29.2116 124.888 29.2116C126.352 29.2116 126.875 28.3763 127.085 27.6977L131.896 13.4981L136.706 27.5933C136.916 28.6373 137.7 29.2116 138.851 29.2116C140.001 29.2116 140.785 28.6895 141.151 27.5933L146.747 11.0967C146.956 10.4703 146.904 9.89605 146.59 9.53063C146.381 9.11299 145.962 8.90417 145.439 8.90417Z" fill="white"/>
<path d="M152.237 1.69995C151.087 1.69995 150.198 2.58742 150.198 3.73591C150.198 4.8844 151.087 5.77187 152.237 5.77187C153.335 5.77187 154.277 4.8844 154.277 3.73591C154.277 2.58742 153.283 1.69995 152.237 1.69995Z" fill="white"/>
<path d="M152.238 8.9563C151.349 8.9563 150.669 9.63495 150.669 10.5224V27.541C150.669 28.4284 151.349 29.1071 152.238 29.1071C153.179 29.1071 153.859 28.4284 153.859 27.541V10.5224C153.807 9.58275 153.179 8.9563 152.238 8.9563Z" fill="white"/>
<path d="M166.147 17.309C163.637 16.5259 161.441 15.8995 161.441 13.9679C161.441 12.4018 163.01 11.3577 165.311 11.3577C167.246 11.3577 168.501 12.0364 169.39 12.5062C169.965 12.8194 170.435 13.0805 170.958 13.0805C171.743 13.0805 172.266 12.5584 172.266 11.7754C172.266 10.1048 168.919 8.5387 165.468 8.5387C161.18 8.5387 158.303 10.7835 158.303 14.0723C158.303 18.0399 161.859 19.1361 164.997 20.0758C167.664 20.8589 169.912 21.5375 169.912 23.6779C169.912 25.505 168.344 26.6535 165.781 26.6535C162.957 26.6535 161.441 25.5572 160.447 24.8264C159.872 24.4088 159.454 24.0955 158.983 24.0955C158.147 24.0955 157.571 24.6176 157.571 25.4006C157.571 27.019 161.023 29.5248 165.572 29.5248C170.122 29.5248 173.05 27.1756 173.05 23.5735C173.05 19.3972 169.39 18.3009 166.147 17.309Z" fill="white"/>
<path d="M194.804 18.0921C194.804 13.3937 191.196 8.5387 185.182 8.5387C179.587 8.5387 175.351 13.0283 175.351 19.0317C175.351 25.0352 179.796 29.577 185.705 29.577C189.889 29.577 193.235 27.5932 193.235 25.9227C193.235 25.1918 192.712 24.6176 191.928 24.6176C191.51 24.6176 191.091 24.8786 190.621 25.1918C189.732 25.7661 188.32 26.6535 185.81 26.6535C182.045 26.6535 179.116 23.9389 178.646 20.128H192.869C194.072 20.0758 194.804 19.2928 194.804 18.0921ZM191.614 17.5178H178.646C179.221 13.9157 181.888 11.4099 185.182 11.4099C188.634 11.4099 191.091 13.8113 191.614 17.5178Z" fill="white"/>
</svg>
