<svg width="237" height="64" viewBox="0 0 237 64" fill="none" xmlns="http://www.w3.org/2000/svg">
<path fill-rule="evenodd" clip-rule="evenodd" d="M31.6376 10.3375C25.8972 15.6514 22.24 23.663 22.1938 32.6147C22.1476 41.6075 25.7121 49.6599 31.4061 55.0149C29.7397 46.9215 31.2673 38.0512 36.128 30.8978C37.3317 29.0994 38.7206 27.4645 40.2482 26.0747C38.952 19.8207 35.8965 14.3435 31.6376 10.3375Z" fill="white"/>
<path fill-rule="evenodd" clip-rule="evenodd" d="M6.0647 19.3306C4.39804 27.4238 5.78696 36.2531 10.6478 43.4062C15.4623 50.6006 22.4064 54.6063 29.8595 55.015C24.1192 49.6603 20.8324 41.6078 20.8324 32.6561C20.8324 30.367 21.0639 28.1597 21.5267 25.9932C17.0825 21.9057 11.6201 19.6166 6.0647 19.3306ZM56.8484 19.5348C37.2664 22.6824 29.952 40.2181 32.776 55.015C52.4507 51.8676 59.7651 34.4137 56.8484 19.5348Z" fill="white"/>
<path d="M82.7672 28.7895V33.0601H68.8968V28.7895H82.7672ZM70.5211 17.9669V44.5397H65.0459V17.9669H70.5211ZM86.6728 17.9669V44.5397H81.2159V17.9669H86.6728ZM101.766 40.0865V31.2898C101.766 30.6571 101.663 30.1157 101.456 29.6655C101.249 29.2031 100.926 28.8442 100.488 28.5887C100.063 28.3332 99.509 28.2054 98.8277 28.2054C98.2437 28.2054 97.7387 28.3089 97.3129 28.5157C96.887 28.7104 96.5585 28.9963 96.3273 29.3735C96.0962 29.7385 95.9806 30.1704 95.9806 30.6693H90.7244C90.7244 29.8297 90.9191 29.0328 91.3084 28.2784C91.6978 27.5241 92.2636 26.861 93.0057 26.2891C93.7479 25.7051 94.63 25.2488 95.6521 24.9203C96.6863 24.5918 97.8421 24.4276 99.1197 24.4276C100.653 24.4276 102.015 24.6831 103.208 25.1941C104.4 25.7051 105.337 26.4716 106.018 27.4937C106.712 28.5157 107.059 29.7932 107.059 31.3263V39.7763C107.059 40.8591 107.126 41.7473 107.259 42.4409C107.393 43.1222 107.588 43.7184 107.843 44.2294V44.5397H102.533C102.277 44.0043 102.082 43.3351 101.949 42.5321C101.827 41.7169 101.766 40.9017 101.766 40.0865ZM102.46 32.5126L102.496 35.4874H99.5577C98.8642 35.4874 98.2619 35.5665 97.7509 35.7247C97.2399 35.8828 96.8201 36.1079 96.4916 36.3999C96.1631 36.6798 95.9198 37.0083 95.7616 37.3855C95.6156 37.7626 95.5426 38.1763 95.5426 38.6265C95.5426 39.0767 95.646 39.4843 95.8528 39.8493C96.0597 40.2021 96.3578 40.482 96.7471 40.6888C97.1365 40.8835 97.5927 40.9808 98.1159 40.9808C98.9068 40.9808 99.5942 40.8226 100.178 40.5063C100.762 40.19 101.212 39.8006 101.529 39.3383C101.857 38.8759 102.028 38.4379 102.04 38.0242L103.427 40.2508C103.232 40.7496 102.964 41.2667 102.624 41.8021C102.295 42.3374 101.876 42.8424 101.364 43.3169C100.853 43.7792 100.239 44.1625 99.5212 44.4667C98.8033 44.7587 97.9516 44.9047 96.9661 44.9047C95.7129 44.9047 94.5753 44.6553 93.5533 44.1564C92.5434 43.6454 91.7404 42.9458 91.1442 42.0576C90.5602 41.1572 90.2682 40.1352 90.2682 38.9915C90.2682 37.9573 90.4628 37.0387 90.8522 36.2357C91.2415 35.4326 91.8134 34.7574 92.5677 34.2099C93.3343 33.6502 94.2894 33.2304 95.4331 32.9506C96.5768 32.6586 97.903 32.5126 99.4117 32.5126H102.46ZM116.366 29.0997V44.5397H111.11V24.7926H116.056L116.366 29.0997ZM122.316 24.6648L122.225 29.5377C121.969 29.5012 121.659 29.4708 121.294 29.4465C120.941 29.41 120.619 29.3917 120.327 29.3917C119.585 29.3917 118.94 29.4891 118.392 29.6837C117.857 29.8662 117.407 30.14 117.042 30.505C116.689 30.87 116.421 31.3141 116.239 31.8373C116.068 32.3605 115.971 32.9567 115.947 33.6258L114.888 33.2973C114.888 32.0198 115.016 30.8457 115.271 29.775C115.527 28.6921 115.898 27.7492 116.385 26.9461C116.884 26.1431 117.492 25.5226 118.21 25.0846C118.928 24.6466 119.749 24.4276 120.674 24.4276C120.966 24.4276 121.264 24.4519 121.568 24.5006C121.872 24.5371 122.121 24.5918 122.316 24.6648ZM130.054 28.8807V44.5397H124.78V24.7926H129.726L130.054 28.8807ZM129.324 33.9726H127.864C127.864 32.5977 128.029 31.3324 128.357 30.1765C128.698 29.0085 129.191 27.9986 129.835 27.1469C130.492 26.283 131.301 25.6139 132.263 25.1393C133.224 24.6648 134.337 24.4276 135.603 24.4276C136.479 24.4276 137.282 24.5614 138.012 24.8291C138.742 25.0846 139.368 25.4922 139.891 26.0519C140.427 26.5994 140.84 27.3172 141.132 28.2054C141.424 29.0815 141.57 30.1339 141.57 31.3628V44.5397H136.314V31.9468C136.314 31.0464 136.193 30.3529 135.949 29.8662C135.706 29.3796 135.359 29.0389 134.909 28.8442C134.471 28.6495 133.942 28.5522 133.321 28.5522C132.64 28.5522 132.044 28.6921 131.533 28.972C131.034 29.2518 130.62 29.6411 130.292 30.14C129.963 30.6267 129.72 31.1985 129.562 31.8555C129.403 32.5126 129.324 33.2182 129.324 33.9726ZM141.078 33.3703L139.198 33.6076C139.198 32.3179 139.356 31.1194 139.672 30.0122C140.001 28.905 140.482 27.9317 141.114 27.0921C141.759 26.2526 142.556 25.6017 143.505 25.1393C144.454 24.6648 145.549 24.4276 146.79 24.4276C147.739 24.4276 148.603 24.5675 149.382 24.8473C150.16 25.115 150.823 25.5469 151.371 26.1431C151.931 26.7271 152.357 27.4937 152.649 28.4427C152.953 29.3917 153.105 30.5537 153.105 31.9285V44.5397H147.83V31.9285C147.83 31.016 147.709 30.3225 147.465 29.848C147.234 29.3613 146.894 29.0267 146.443 28.8442C146.005 28.6495 145.482 28.5522 144.874 28.5522C144.241 28.5522 143.688 28.6799 143.213 28.9355C142.738 29.1788 142.343 29.5195 142.027 29.9575C141.71 30.3955 141.473 30.9065 141.315 31.4905C141.157 32.0624 141.078 32.689 141.078 33.3703ZM156.335 34.8669V34.4836C156.335 33.0357 156.542 31.7035 156.956 30.4868C157.369 29.2579 157.972 28.1933 158.762 27.2929C159.553 26.3925 160.527 25.6929 161.683 25.1941C162.838 24.6831 164.165 24.4276 165.661 24.4276C167.158 24.4276 168.49 24.6831 169.658 25.1941C170.826 25.6929 171.806 26.3925 172.596 27.2929C173.399 28.1933 174.008 29.2579 174.421 30.4868C174.835 31.7035 175.042 33.0357 175.042 34.4836V34.8669C175.042 36.3026 174.835 37.6349 174.421 38.8638C174.008 40.0805 173.399 41.1451 172.596 42.0576C171.806 42.958 170.832 43.6576 169.676 44.1564C168.52 44.6553 167.194 44.9047 165.698 44.9047C164.201 44.9047 162.869 44.6553 161.701 44.1564C160.545 43.6576 159.565 42.958 158.762 42.0576C157.972 41.1451 157.369 40.0805 156.956 38.8638C156.542 37.6349 156.335 36.3026 156.335 34.8669ZM161.591 34.4836V34.8669C161.591 35.6942 161.664 36.4668 161.81 37.1847C161.956 37.9026 162.187 38.5352 162.504 39.0828C162.832 39.6181 163.258 40.0379 163.781 40.342C164.305 40.6462 164.943 40.7983 165.698 40.7983C166.428 40.7983 167.054 40.6462 167.577 40.342C168.101 40.0379 168.52 39.6181 168.837 39.0828C169.153 38.5352 169.384 37.9026 169.53 37.1847C169.688 36.4668 169.768 35.6942 169.768 34.8669V34.4836C169.768 33.6806 169.688 32.9262 169.53 32.2206C169.384 31.5027 169.147 30.87 168.819 30.3225C168.502 29.7628 168.082 29.3248 167.559 29.0085C167.036 28.6921 166.403 28.5339 165.661 28.5339C164.919 28.5339 164.286 28.6921 163.763 29.0085C163.252 29.3248 162.832 29.7628 162.504 30.3225C162.187 30.87 161.956 31.5027 161.81 32.2206C161.664 32.9262 161.591 33.6806 161.591 34.4836ZM183.419 29.0085V44.5397H178.163V24.7926H183.09L183.419 29.0085ZM182.652 33.9726H181.229C181.229 32.5126 181.417 31.1985 181.795 30.0305C182.172 28.8503 182.701 27.8465 183.382 27.0191C184.064 26.1796 184.873 25.5409 185.81 25.1028C186.759 24.6527 187.817 24.4276 188.985 24.4276C189.91 24.4276 190.756 24.5614 191.522 24.8291C192.289 25.0968 192.946 25.5226 193.493 26.1066C194.053 26.6906 194.479 27.4632 194.771 28.4244C195.075 29.3856 195.227 30.5598 195.227 31.9468V44.5397H189.934V31.9285C189.934 31.0525 189.813 30.3712 189.569 29.8845C189.326 29.3978 188.967 29.0571 188.493 28.8625C188.03 28.6556 187.458 28.5522 186.777 28.5522C186.071 28.5522 185.457 28.6921 184.934 28.972C184.423 29.2518 183.997 29.6411 183.656 30.14C183.328 30.6267 183.078 31.1985 182.908 31.8555C182.738 32.5126 182.652 33.2182 182.652 33.9726ZM208.313 44.9047C206.78 44.9047 205.405 44.6613 204.188 44.1747C202.971 43.6758 201.937 42.9884 201.085 42.1124C200.246 41.2363 199.601 40.2204 199.151 39.0645C198.701 37.8965 198.476 36.6554 198.476 35.3414V34.6114C198.476 33.1148 198.689 31.746 199.114 30.505C199.54 29.264 200.149 28.1872 200.939 27.2747C201.743 26.3621 202.716 25.6625 203.86 25.1758C205.003 24.677 206.293 24.4276 207.729 24.4276C209.128 24.4276 210.369 24.6587 211.452 25.1211C212.535 25.5834 213.441 26.2405 214.171 27.0921C214.913 27.9438 215.473 28.9659 215.85 30.1582C216.227 31.3384 216.416 32.6525 216.416 34.1004V36.2904H200.72V32.7863H211.251V32.3848C211.251 31.6548 211.117 31.0039 210.85 30.432C210.594 29.848 210.205 29.3856 209.681 29.045C209.158 28.7043 208.489 28.5339 207.674 28.5339C206.98 28.5339 206.384 28.686 205.885 28.9902C205.387 29.2944 204.979 29.7202 204.663 30.2677C204.358 30.8153 204.127 31.4601 203.969 32.2023C203.823 32.9323 203.75 33.7353 203.75 34.6114V35.3414C203.75 36.1323 203.86 36.8623 204.079 37.5315C204.31 38.2006 204.632 38.7786 205.046 39.2653C205.472 39.7519 205.983 40.1291 206.579 40.3968C207.187 40.6645 207.875 40.7983 208.641 40.7983C209.59 40.7983 210.472 40.6158 211.288 40.2508C212.115 39.8736 212.827 39.3078 213.423 38.5535L215.978 41.3276C215.564 41.9238 214.998 42.4956 214.281 43.0431C213.575 43.5906 212.723 44.0408 211.726 44.3937C210.728 44.7343 209.59 44.9047 208.313 44.9047ZM225.012 42.3131L230.25 24.7926H235.889L227.95 47.5145C227.78 48.0134 227.549 48.5487 227.257 49.1206C226.977 49.6924 226.594 50.2338 226.107 50.7449C225.632 51.268 225.03 51.6939 224.3 52.0224C223.582 52.3509 222.7 52.5152 221.654 52.5152C221.155 52.5152 220.747 52.4847 220.431 52.4239C220.115 52.3631 219.738 52.2779 219.3 52.1684V48.3175C219.433 48.3175 219.573 48.3175 219.719 48.3175C219.865 48.3297 220.005 48.3358 220.139 48.3358C220.833 48.3358 221.398 48.2567 221.836 48.0985C222.274 47.9404 222.627 47.697 222.895 47.3685C223.163 47.0522 223.375 46.6385 223.534 46.1275L225.012 42.3131ZM222.822 24.7926L227.111 39.101L227.859 44.6674L224.282 45.0507L217.182 24.7926H222.822Z" fill="white"/>
</svg>
