<svg width="58" height="58" viewBox="0 0 58 58" fill="none" xmlns="http://www.w3.org/2000/svg">
<path d="M28.7993 0.58194C13.0602 0.58194 0.299316 13.3428 0.299316 29.0819C0.299316 44.8211 13.0602 57.5819 28.7993 57.5819C44.5384 57.5819 57.2993 44.8211 57.2993 29.0819C57.2993 13.3428 44.5384 0.58194 28.7993 0.58194ZM42.0019 21.1981L28.3504 42.0637C28.3469 42.0673 28.3398 42.0708 28.3398 42.0744C28.2685 42.1813 28.2293 42.3024 28.1403 42.4021C28.0156 42.5375 27.8553 42.6088 27.7128 42.7121C27.6771 42.737 27.6415 42.7655 27.6023 42.7904C27.3814 42.9294 27.1534 43.022 26.9041 43.0826C26.8221 43.1039 26.7473 43.1253 26.6618 43.1396C26.4634 43.1669 26.2623 43.1693 26.0633 43.1467C25.9227 43.1378 25.7832 43.1163 25.6465 43.0826C25.5054 43.04 25.3683 42.9852 25.2368 42.9187C25.1228 42.8653 25.0017 42.851 24.8948 42.7833C24.8164 42.7334 24.7737 42.6551 24.706 42.5945C24.6775 42.5696 24.6419 42.5624 24.6134 42.5375L16.6654 35.1881C16.1943 34.7357 15.9195 34.1166 15.9 33.4637C15.8805 32.8109 16.1179 32.1765 16.5612 31.6968C17.0044 31.2171 17.6182 30.9305 18.2706 30.8985C18.9229 30.8666 19.5618 31.0918 20.0498 31.5258L25.8033 36.8482L37.8267 18.4693C38.1886 17.9156 38.7556 17.5283 39.4029 17.3927C40.0503 17.2571 40.7251 17.3842 41.2788 17.7461C41.8324 18.1079 42.2197 18.6749 42.3553 19.3223C42.4909 19.9697 42.3638 20.6445 42.0019 21.1981Z" fill="#B78282"/>
</svg>
