<svg width="27" height="28" viewBox="0 0 27 28" fill="none" xmlns="http://www.w3.org/2000/svg">
<g clip-path="url(#clip0_573_1329)">
<path d="M13.5713 0C6.11591 0 0.0712891 6.2685 0.0712891 14C0.0712891 21.7315 6.11591 28 13.5713 28C21.0267 28 27.0713 21.7315 27.0713 14C27.0713 6.2685 21.0267 0 13.5713 0ZM19.8252 10.1273L13.3587 20.377C13.357 20.3787 13.3536 20.3805 13.3536 20.3822C13.3199 20.4347 13.3013 20.4943 13.2591 20.5433C13.2 20.6098 13.1241 20.6448 13.0566 20.6955C13.0397 20.7078 13.0229 20.7217 13.0043 20.734C12.8997 20.8022 12.7917 20.8477 12.6735 20.8775C12.6347 20.888 12.5993 20.8985 12.5588 20.9055C12.4648 20.9189 12.3696 20.9201 12.2753 20.909C12.2087 20.9046 12.1426 20.8941 12.0779 20.8775C12.011 20.8566 11.9461 20.8297 11.8838 20.797C11.8298 20.7708 11.7724 20.7638 11.7218 20.7305C11.6847 20.706 11.6644 20.6675 11.6324 20.6378C11.6189 20.6255 11.602 20.622 11.5885 20.6098L7.82366 16.9995C7.60051 16.7773 7.47032 16.4732 7.46108 16.1525C7.45185 15.8318 7.5643 15.5201 7.77427 15.2845C7.98425 15.0489 8.27498 14.9081 8.58398 14.8924C8.89299 14.8767 9.19561 14.9873 9.42679 15.2005L12.1521 17.815L17.8474 8.78675C18.0188 8.51477 18.2874 8.32455 18.5941 8.25792C18.9007 8.1913 19.2203 8.25374 19.4826 8.4315C19.7449 8.60926 19.9283 8.88779 19.9925 9.2058C20.0568 9.52382 19.9966 9.85527 19.8252 10.1273Z" fill="#F6BD0C"/>
</g>
<defs>
<clipPath id="clip0_573_1329">
<rect width="27" height="28" fill="white"/>
</clipPath>
</defs>
</svg>
