<svg width="58" height="58" viewBox="0 0 58 58" fill="none" xmlns="http://www.w3.org/2000/svg">
<g clip-path="url(#clip0_213_559)">
<path d="M28.7991 0.816925C13.0599 0.816925 0.299072 13.5778 0.299072 29.3169C0.299072 45.056 13.0599 57.8169 28.7991 57.8169C44.5382 57.8169 57.2991 45.056 57.2991 29.3169C57.2991 13.5778 44.5382 0.816925 28.7991 0.816925ZM42.0017 21.4331L28.3502 42.2987C28.3466 42.3022 28.3395 42.3058 28.3395 42.3094C28.2683 42.4162 28.2291 42.5374 28.14 42.6371C28.0153 42.7725 27.855 42.8437 27.7125 42.9471C27.6769 42.972 27.6413 43.0005 27.6021 43.0254C27.3812 43.1644 27.1532 43.257 26.9038 43.3176C26.8219 43.3389 26.7471 43.3603 26.6616 43.3745C26.4631 43.4018 26.2621 43.4042 26.0631 43.3817C25.9225 43.3728 25.783 43.3513 25.6463 43.3176C25.5052 43.275 25.3681 43.2202 25.2366 43.1537C25.1226 43.1002 25.0014 43.086 24.8946 43.0183C24.8162 42.9684 24.7734 42.89 24.7058 42.8295C24.6773 42.8046 24.6416 42.7974 24.6131 42.7725L16.6652 35.423C16.1941 34.9707 15.9192 34.3516 15.8998 33.6987C15.8803 33.0459 16.1177 32.4114 16.5609 31.9318C17.0042 31.4521 17.618 31.1655 18.2703 31.1335C18.9227 31.1015 19.5615 31.3268 20.0496 31.7608L25.803 37.0832L37.8265 18.7042C38.1883 18.1506 38.7553 17.7633 39.4027 17.6277C40.0501 17.4921 40.7248 17.6192 41.2785 17.981C41.8322 18.3429 42.2194 18.9099 42.355 19.5573C42.4907 20.2047 42.3636 20.8794 42.0017 21.4331Z" fill="#F6BD0C"/>
</g>
<defs>
<clipPath id="clip0_213_559">
<rect width="57" height="57" fill="white" transform="translate(0.149414 0.816925)"/>
</clipPath>
</defs>
</svg>
