<svg width="58" height="58" viewBox="0 0 58 58" fill="none" xmlns="http://www.w3.org/2000/svg">
<g clip-path="url(#clip0_213_561)">
<path d="M28.7993 0.161346C13.0602 0.161346 0.299316 12.9222 0.299316 28.6613C0.299316 44.4005 13.0602 57.1613 28.7993 57.1613C44.5384 57.1613 57.2993 44.4005 57.2993 28.6613C57.2993 12.9222 44.5384 0.161346 28.7993 0.161346ZM42.0019 20.7775L28.3504 41.6431C28.3469 41.6467 28.3398 41.6502 28.3398 41.6538C28.2685 41.7607 28.2293 41.8818 28.1403 41.9815C28.0156 42.1169 27.8553 42.1882 27.7128 42.2915C27.6771 42.3164 27.6415 42.3449 27.6023 42.3698C27.3814 42.5088 27.1534 42.6014 26.9041 42.662C26.8221 42.6833 26.7473 42.7047 26.6618 42.719C26.4634 42.7463 26.2623 42.7487 26.0633 42.7261C25.9227 42.7172 25.7832 42.6958 25.6465 42.662C25.5054 42.6194 25.3683 42.5646 25.2368 42.4981C25.1228 42.4447 25.0017 42.4304 24.8948 42.3627C24.8164 42.3128 24.7737 42.2345 24.706 42.1739C24.6775 42.149 24.6419 42.1418 24.6134 42.1169L16.6654 34.7675C16.1943 34.3151 15.9195 33.696 15.9 33.0431C15.8805 32.3903 16.1179 31.7559 16.5612 31.2762C17.0044 30.7965 17.6182 30.5099 18.2706 30.4779C18.9229 30.446 19.5618 30.6712 20.0498 31.1052L25.8033 36.4276L37.8267 18.0487C38.1886 17.495 38.7556 17.1077 39.4029 16.9721C40.0503 16.8365 40.7251 16.9636 41.2788 17.3255C41.8324 17.6873 42.2197 18.2543 42.3553 18.9017C42.4909 19.5491 42.3638 20.2239 42.0019 20.7775Z" fill="#8FB1D1"/>
</g>
<defs>
<clipPath id="clip0_213_561">
<rect width="57" height="57" fill="white" transform="translate(0.149658 0.161346)"/>
</clipPath>
</defs>
</svg>
