<svg width="27" height="26" viewBox="0 0 27 26" fill="none" xmlns="http://www.w3.org/2000/svg">
<path fill-rule="evenodd" clip-rule="evenodd" d="M13.743 0.605225C6.61305 0.605225 0.876953 6.31393 0.876953 13.4098C0.876953 19.0651 4.57593 23.8668 9.66873 25.5741C10.312 25.6808 10.5265 25.3074 10.5265 24.9339C10.5265 24.6138 10.5265 23.8135 10.5265 22.7464C6.9347 23.5467 6.18418 21.0392 6.18418 21.0392C5.59449 19.5453 4.73676 19.1718 4.73676 19.1718C3.55737 18.3716 4.84397 18.3716 4.84397 18.3716C6.13057 18.4783 6.82748 19.7054 6.82748 19.7054C7.95326 21.6794 9.82955 21.0925 10.5801 20.7724C10.6873 19.9188 11.0089 19.3853 11.3842 19.0651C8.54295 18.745 5.54088 17.6246 5.54088 12.7162C5.54088 11.329 6.02336 10.1553 6.88109 9.30166C6.77387 8.98154 6.2914 7.70109 6.98831 5.88711C6.98831 5.88711 8.06048 5.56699 10.5265 7.22092C11.545 6.95415 12.6708 6.7941 13.743 6.7941C14.8151 6.7941 15.9409 6.95415 16.9595 7.22092C19.4255 5.56699 20.4976 5.88711 20.4976 5.88711C21.1945 7.64773 20.7657 8.92819 20.6048 9.30166C21.409 10.2086 21.945 11.329 21.945 12.7162C21.945 17.6246 18.943 18.6917 16.0481 19.0118C16.5306 19.3852 16.9059 20.1855 16.9059 21.3593C16.9059 23.0666 16.9059 24.4537 16.9059 24.8805C16.9059 25.2007 17.1203 25.6275 17.8172 25.5208C22.91 23.8668 26.609 19.0651 26.609 13.4098C26.609 6.31393 20.8729 0.605225 13.743 0.605225Z" fill="white"/>
</svg>
