<svg width="28" height="28" viewBox="0 0 28 28" fill="none" xmlns="http://www.w3.org/2000/svg">
<path d="M13.8107 3.01727C17.4019 3.01727 17.8272 3.03066 19.2459 3.09504C20.0989 3.10543 20.9438 3.26131 21.7438 3.55591C22.324 3.77859 22.8509 4.11971 23.2906 4.55731C23.7303 4.99492 24.0731 5.5193 24.2968 6.09672C24.5929 6.89294 24.7495 7.73379 24.7599 8.58271C24.824 9.99462 24.8381 10.4179 24.8381 13.992C24.8381 17.5661 24.8246 17.9893 24.7599 19.4012C24.7495 20.2501 24.5929 21.091 24.2968 21.8872C24.0731 22.4646 23.7303 22.989 23.2906 23.4266C22.8509 23.8642 22.324 24.2054 21.7438 24.428C20.9438 24.7226 20.0989 24.8785 19.2459 24.8889C17.8279 24.9526 17.4026 24.9667 13.8107 24.9667C10.2188 24.9667 9.79353 24.9533 8.37548 24.8889C7.52249 24.8785 6.67761 24.7226 5.87756 24.428C5.29737 24.2054 4.77047 23.8642 4.33077 23.4266C3.89106 22.989 3.5483 22.4646 3.32455 21.8872C3.02854 21.091 2.87191 20.2501 2.86148 19.4012C2.79743 17.9893 2.78334 17.5661 2.78334 13.992C2.78334 10.4179 2.79679 9.99462 2.86148 8.58271C2.87191 7.73379 3.02854 6.89294 3.32455 6.09672C3.5483 5.5193 3.89106 4.99492 4.33077 4.55731C4.77047 4.11971 5.29737 3.77859 5.87756 3.55591C6.67761 3.26131 7.52249 3.10543 8.37548 3.09504C9.79417 3.0313 10.2195 3.01727 13.8107 3.01727V3.01727ZM13.8107 0.605225C10.1599 0.605225 9.70002 0.620523 8.26531 0.685541C7.14896 0.70764 6.04447 0.918001 4.9988 1.30768C4.10179 1.64403 3.28932 2.17112 2.61809 2.85218C1.93315 3.52045 1.40307 4.32949 1.06489 5.22279C0.673348 6.26347 0.461977 7.36269 0.439773 8.47371C0.375723 9.90028 0.360352 10.358 0.360352 13.9913C0.360352 17.6247 0.375723 18.0824 0.441054 19.5102C0.463258 20.6213 0.674629 21.7205 1.06617 22.7611C1.40398 23.6543 1.93361 24.4634 2.61809 25.1318C3.28969 25.813 4.10261 26.3401 5.00008 26.6763C6.04575 27.0659 7.15025 27.2763 8.26659 27.2984C9.7013 27.3621 10.1593 27.3787 13.812 27.3787C17.4647 27.3787 17.9227 27.3634 19.3574 27.2984C20.4737 27.2763 21.5782 27.0659 22.6239 26.6763C23.5171 26.3317 24.3282 25.8054 25.0054 25.131C25.6826 24.4566 26.2109 23.649 26.5565 22.7599C26.9481 21.7192 27.1594 20.62 27.1816 19.509C27.2457 18.0824 27.261 17.6247 27.261 13.9913C27.261 10.358 27.2457 9.90028 27.1803 8.47243C27.1581 7.36141 26.9468 6.26219 26.5552 5.22152C26.2174 4.32833 25.6878 3.5193 25.0033 2.8509C24.3317 2.16969 23.5188 1.64259 22.6213 1.3064C21.5757 0.916726 20.4712 0.706365 19.3548 0.684266C17.9214 0.620523 17.4615 0.605225 13.8107 0.605225Z" fill="white"/>
<path d="M13.8075 7.11743C12.4414 7.11743 11.106 7.52059 9.9701 8.27592C8.83424 9.03126 7.94894 10.1048 7.42616 11.3609C6.90338 12.617 6.7666 13.9991 7.03311 15.3326C7.29962 16.666 7.95746 17.8909 8.92343 18.8522C9.8894 19.8136 11.1201 20.4683 12.46 20.7335C13.7998 20.9988 15.1886 20.8626 16.4507 20.3423C17.7128 19.8221 18.7915 18.941 19.5505 17.8106C20.3094 16.6801 20.7145 15.3511 20.7145 13.9915C20.7145 12.1684 19.9868 10.4199 18.6915 9.13081C17.3962 7.84166 15.6393 7.11743 13.8075 7.11743ZM13.8075 18.4536C12.9207 18.4536 12.0539 18.1919 11.3166 17.7016C10.5793 17.2113 10.0046 16.5144 9.6653 15.6991C9.32596 14.8837 9.23717 13.9866 9.41017 13.121C9.58316 12.2555 10.0102 11.4604 10.6372 10.8364C11.2642 10.2124 12.0631 9.78739 12.9328 9.61522C13.8025 9.44305 14.704 9.53141 15.5232 9.86913C16.3425 10.2069 17.0427 10.7788 17.5353 11.5125C18.028 12.2463 18.2909 13.109 18.2909 13.9915C18.2909 15.1749 17.8186 16.3099 16.9777 17.1467C16.1369 17.9834 14.9966 18.4536 13.8075 18.4536V18.4536Z" fill="white"/>
<path d="M20.99 8.45192C21.8814 8.45192 22.6041 7.73274 22.6041 6.84559C22.6041 5.95844 21.8814 5.23926 20.99 5.23926C20.0986 5.23926 19.376 5.95844 19.376 6.84559C19.376 7.73274 20.0986 8.45192 20.99 8.45192Z" fill="white"/>
</svg>
