<svg width="23" height="19" viewBox="0 0 23 19" fill="none" xmlns="http://www.w3.org/2000/svg">
<path d="M22.5709 3.03022C21.7389 3.39823 20.8607 3.62823 19.9363 3.76623C20.8607 3.21422 21.6003 2.34022 21.9238 1.28221C21.0456 1.78821 20.075 2.15621 19.0119 2.38622C18.1799 1.51221 16.9781 0.960205 15.684 0.960205C13.188 0.960205 11.1543 2.98422 11.1543 5.46824C11.1543 5.83624 11.2005 6.15825 11.2929 6.48025C7.54904 6.29625 4.1749 4.50223 1.91006 1.74221C1.54029 2.43222 1.30919 3.16822 1.30919 3.99623C1.30919 5.56024 2.09495 6.94025 3.34292 7.76826C2.60338 7.72226 1.91006 7.53826 1.26297 7.21626V7.26226C1.26297 9.47027 2.83448 11.3103 4.91444 11.7243C4.54467 11.8163 4.12868 11.8623 3.71269 11.8623C3.43536 11.8623 3.11181 11.8163 2.83448 11.7703C3.43536 13.5643 5.09932 14.8983 7.08683 14.8983C5.51531 16.0943 3.57402 16.8303 1.44785 16.8303C1.07808 16.8303 0.708313 16.8303 0.384766 16.7843C2.41849 18.0723 4.77577 18.8084 7.36415 18.8084C15.7302 18.8084 20.3061 11.9083 20.3061 5.92825C20.3061 5.74424 20.3061 5.51424 20.3061 5.33024C21.1843 4.73224 21.97 3.95023 22.5709 3.03022Z" fill="white"/>
</svg>
